<svg xmlns="http://www.w3.org/2000/svg" viewBox="0 0 527.24 175.75"><path d="M19,131.47a6.59,6.59,0,1,0-6.59,6.59A6.6,6.6,0,0,0,19,131.47Z" style="fill:#004336"/><path d="M21.38,139.07a5.11,5.11,0,1,0,5.1,5.11A5.1,5.1,0,0,0,21.38,139.07Z" style="fill:#004336"/><circle cx="32.57" cy="154.98" r="4.6" style="fill:#004336"/><circle cx="45.59" cy="163.51" r="4.1" style="fill:#004336"/><path d="M60,165.87a3.61,3.61,0,1,0,3.6,3.6A3.6,3.6,0,0,0,60,165.87Z" style="fill:#004336"/><path d="M75.19,169.54a3.11,3.11,0,1,0,3.1,3.1A3.1,3.1,0,0,0,75.19,169.54Z" style="fill:#004336"/><path d="M90.74,170.31a2.61,2.61,0,1,0,2.61,2.6A2.61,2.61,0,0,0,90.74,170.31Z" style="fill:#004336"/><path d="M106.08,168.2a2.1,2.1,0,1,0,2.1,2.1A2.1,2.1,0,0,0,106.08,168.2Z" style="fill:#004336"/><path d="M120.67,163.3a1.6,1.6,0,1,0,1.6,1.6A1.6,1.6,0,0,0,120.67,163.3Z" style="fill:#004336"/><path d="M134,155.79a1.11,1.11,0,1,0,1.1,1.1A1.1,1.1,0,0,0,134,155.79Z" style="fill:#004336"/><path d="M145.62,145.93a.61.61,0,1,0,.6.61A.61.61,0,0,0,145.62,145.93Z" style="fill:#004336"/><path d="M84.68,13.18a6.59,6.59,0,1,0-6.59-6.59A6.59,6.59,0,0,0,84.68,13.18Z" style="fill:#004336"/><path d="M69.19,13.12A5.11,5.11,0,1,0,64.08,8,5.1,5.1,0,0,0,69.19,13.12Z" style="fill:#004336"/><path d="M54.23,16.92a4.61,4.61,0,1,0-4.6-4.61A4.61,4.61,0,0,0,54.23,16.92Z" style="fill:#004336"/><path d="M40.35,23.43a4.11,4.11,0,1,0-4.1-4.1A4.11,4.11,0,0,0,40.35,23.43Z" style="fill:#004336"/><path d="M28,32.4a3.61,3.61,0,1,0-3.6-3.61A3.61,3.61,0,0,0,28,32.4Z" style="fill:#004336"/><circle cx="17.64" cy="40.41" r="3.1" style="fill:#004336"/><path d="M9.63,56.35A2.61,2.61,0,1,0,7,53.75,2.61,2.61,0,0,0,9.63,56.35Z" style="fill:#004336"/><path d="M4.22,66.23a2.11,2.11,0,1,0,2.11,2.11A2.11,2.11,0,0,0,4.22,66.23Z" style="fill:#004336"/><path d="M1.6,82.08a1.6,1.6,0,1,0,1.6,1.6A1.6,1.6,0,0,0,1.6,82.08Z" style="fill:#004336"/><path d="M1.86,98.14A1.1,1.1,0,1,0,3,99.24,1.1,1.1,0,0,0,1.86,98.14Z" style="fill:#004336"/><path d="M5,113.87a.61.61,0,1,0,.61.61A.6.6,0,0,0,5,113.87Z" style="fill:#004336"/><path d="M16.92,118.56a6,6,0,1,0,6-6A6,6,0,0,0,16.92,118.56Z" style="fill:#004336"/><circle cx="31.02" cy="131.82" r="4.53" style="fill:#004336"/><path d="M45.93,142.88a4,4,0,1,0-4,4A4,4,0,0,0,45.93,142.88Z" style="fill:#004336"/><path d="M58.53,151.17a3.42,3.42,0,1,0-3.42,3.42A3.43,3.43,0,0,0,58.53,151.17Z" style="fill:#004336"/><path d="M69.81,153.37a2.87,2.87,0,1,0,2.86,2.87A2.87,2.87,0,0,0,69.81,153.37Z" style="fill:#004336"/><path d="M85.27,155.51a2.31,2.31,0,1,0,2.3,2.31A2.3,2.3,0,0,0,85.27,155.51Z" style="fill:#004336"/><circle cx="100.69" cy="155.86" r="1.75" style="fill:#004336"/><path d="M115.27,149.28a1.2,1.2,0,1,0,1.19,1.19A1.19,1.19,0,0,0,115.27,149.28Z" style="fill:#004336"/><path d="M128.24,141.28a.64.64,0,0,0-.63.64.63.63,0,0,0,1.26,0A.64.64,0,0,0,128.24,141.28Z" style="fill:#004336"/><path d="M84.54,22.19a6,6,0,1,0,6-6A6,6,0,0,0,84.54,22.19Z" style="fill:#004336"/><circle cx="74.99" cy="22.59" r="4.53" style="fill:#004336"/><path d="M56,26.53a4,4,0,1,0,4-4A4,4,0,0,0,56,26.53Z" style="fill:#004336"/><path d="M42.78,33.78a3.42,3.42,0,1,0,3.42-3.42A3.43,3.43,0,0,0,42.78,33.78Z" style="fill:#004336"/><path d="M34.46,46.85A2.87,2.87,0,1,0,31.6,44,2.87,2.87,0,0,0,34.46,46.85Z" style="fill:#004336"/><path d="M25.37,58.89a2.31,2.31,0,1,0-2.31-2.3A2.3,2.3,0,0,0,25.37,58.89Z" style="fill:#004336"/><path d="M19.35,69.17a1.75,1.75,0,1,0,1.75,1.75A1.75,1.75,0,0,0,19.35,69.17Z" style="fill:#004336"/><path d="M16.72,85.06a1.19,1.19,0,1,0,1.19,1.19A1.19,1.19,0,0,0,16.72,85.06Z" style="fill:#004336"/><path d="M17,101.77a.63.63,0,0,0,.63.63.64.64,0,0,0,.64-.63.64.64,0,0,0-.64-.64A.64.64,0,0,0,17,101.77Z" style="fill:#004336"/><path d="M140.33,123a6,6,0,1,0,6,6A6,6,0,0,0,140.33,123Z" style="fill:#004336"/><path d="M152.29,115.29a4.54,4.54,0,1,0-4.54,4.53A4.54,4.54,0,0,0,152.29,115.29Z" style="fill:#004336"/><path d="M151.86,96.31a4,4,0,1,0,4,4A4,4,0,0,0,151.86,96.31Z" style="fill:#004336"/><path d="M152.45,81.32a3.42,3.42,0,1,0,3.42,3.42A3.42,3.42,0,0,0,152.45,81.32Z" style="fill:#004336"/><path d="M149.5,72.34a2.87,2.87,0,1,0-2.87-2.87A2.86,2.86,0,0,0,149.5,72.34Z" style="fill:#004336"/><path d="M143.13,57.6a2.31,2.31,0,1,0-2.3-2.31A2.31,2.31,0,0,0,143.13,57.6Z" style="fill:#004336"/><path d="M132,42.91a1.75,1.75,0,1,0,1.75-1.75A1.75,1.75,0,0,0,132,42.91Z" style="fill:#004336"/><circle cx="121.78" cy="32.97" r="1.19" style="fill:#004336"/><path d="M107.88,26.64a.63.63,0,0,0,.64-.63.64.64,0,1,0-1.27,0A.63.63,0,0,0,107.88,26.64Z" style="fill:#004336"/><path d="M156.82,125a6.6,6.6,0,1,0,6.59,6.59A6.59,6.59,0,0,0,156.82,125Z" style="fill:#004336"/><path d="M163.33,112.38a5.11,5.11,0,1,0,5.1,5.11A5.11,5.11,0,0,0,163.33,112.38Z" style="fill:#004336"/><circle cx="167.09" cy="102.39" r="4.6" style="fill:#004336"/><path d="M168,82.75a4.1,4.1,0,1,0,4.1,4.1A4.1,4.1,0,0,0,168,82.75Z" style="fill:#004336"/><path d="M162.34,71.41a3.6,3.6,0,1,0,3.6-3.6A3.61,3.61,0,0,0,162.34,71.41Z" style="fill:#004336"/><path d="M161.07,59.73a3.1,3.1,0,1,0-3.1-3.1A3.1,3.1,0,0,0,161.07,59.73Z" style="fill:#004336"/><path d="M153.53,45.62a2.6,2.6,0,1,0-2.6-2.6A2.6,2.6,0,0,0,153.53,45.62Z" style="fill:#004336"/><path d="M143.6,33.15A2.11,2.11,0,1,0,141.5,31,2.1,2.1,0,0,0,143.6,33.15Z" style="fill:#004336"/><path d="M131.63,22.7a1.6,1.6,0,1,0-1.6-1.6A1.6,1.6,0,0,0,131.63,22.7Z" style="fill:#004336"/><circle cx="118.03" cy="13.55" r="1.1" style="fill:#004336"/><path d="M103.26,9.27a.6.6,0,1,0-.6-.6A.6.6,0,0,0,103.26,9.27Z" style="fill:#004336"/><circle cx="35.88" cy="107.54" r="4.79" style="fill:#004336"/><circle cx="43.29" cy="121.18" r="3.49" style="fill:#004336"/><path d="M54.42,134.9a2.91,2.91,0,1,0-2.9-2.91A2.91,2.91,0,0,0,54.42,134.9Z" style="fill:#004336"/><circle cx="68.27" cy="139.03" r="2.32" style="fill:#004336"/><path d="M85.3,141.62a1.74,1.74,0,1,0-1.74,1.73A1.74,1.74,0,0,0,85.3,141.62Z" style="fill:#004336"/><path d="M100.1,139.59a1.15,1.15,0,1,0-2.3,0,1.15,1.15,0,0,0,2.3,0Z" style="fill:#004336"/><circle cx="113.05" cy="133.1" r="0.56" style="fill:#004336"/><circle cx="93.62" cy="38.91" r="4.79" style="fill:#004336"/><path d="M78.11,42a3.49,3.49,0,1,0-3.49-3.49A3.49,3.49,0,0,0,78.11,42Z" style="fill:#004336"/><path d="M63.18,45.66a2.91,2.91,0,1,0-2.9-2.91A2.9,2.9,0,0,0,63.18,45.66Z" style="fill:#004336"/><path d="M52.49,51.23a2.32,2.32,0,1,0-2.32,2.32A2.32,2.32,0,0,0,52.49,51.23Z" style="fill:#004336"/><path d="M42,63.19a1.73,1.73,0,1,0-1.73,1.73A1.73,1.73,0,0,0,42,63.19Z" style="fill:#004336"/><circle cx="34.34" cy="77.54" r="1.15" style="fill:#004336"/><path d="M32.34,93a.57.57,0,0,0,.57.56.56.56,0,0,0,0-1.12A.57.57,0,0,0,32.34,93Z" style="fill:#004336"/><circle cx="124.34" cy="123.26" r="4.79" style="fill:#004336"/><circle cx="132.44" cy="110.02" r="3.49" style="fill:#004336"/><path d="M133.34,95a2.9,2.9,0,1,0,2.9-2.9A2.9,2.9,0,0,0,133.34,95Z" style="fill:#004336"/><path d="M133.09,79.45a2.32,2.32,0,1,0,2.32-2.31A2.32,2.32,0,0,0,133.09,79.45Z" style="fill:#004336"/><path d="M130,66.64a1.74,1.74,0,1,0-1.73-1.74A1.73,1.73,0,0,0,130,66.64Z" style="fill:#004336"/><path d="M120.55,53.74a1.15,1.15,0,1,0,0-2.3,1.15,1.15,0,1,0,0,2.3Z" style="fill:#004336"/><path d="M107.89,43.05a.57.57,0,1,0,.56.57A.56.56,0,0,0,107.89,43.05Z" style="fill:#004336"/><circle cx="50.15" cy="99.04" r="4.79" style="fill:#004336"/><circle cx="57.27" cy="112.75" r="3.22" style="fill:#004336"/><path d="M69.56,119.77a2.38,2.38,0,1,0,2.37,2.38A2.39,2.39,0,0,0,69.56,119.77Z" style="fill:#004336"/><circle cx="84.66" cy="125.43" r="1.52" style="fill:#004336"/><path d="M99.07,122.05a.67.67,0,1,0,.67-.67A.67.67,0,0,0,99.07,122.05Z" style="fill:#004336"/><circle cx="93.83" cy="55.53" r="4.79" style="fill:#004336"/><circle cx="78.4" cy="54.85" r="3.22" style="fill:#004336"/><circle cx="64.12" cy="60.79" r="2.37" style="fill:#004336"/><path d="M53.73,73.75a1.52,1.52,0,1,0-1.53-1.52A1.52,1.52,0,0,0,53.73,73.75Z" style="fill:#004336"/><circle cx="49.12" cy="86.99" r="0.67" style="fill:#004336"/><circle cx="109.84" cy="115.15" r="4.79" style="fill:#004336"/><circle cx="118.14" cy="102.12" r="3.22" style="fill:#004336"/><circle cx="120.14" cy="86.78" r="2.37" style="fill:#004336"/><circle cx="115.43" cy="72.05" r="1.52" style="fill:#004336"/><circle cx="104.96" cy="60.68" r="0.67" style="fill:#004336"/><circle cx="65.33" cy="93.24" r="4.79" style="fill:#004336"/><path d="M76.09,106a2.51,2.51,0,1,0-2.51,2.52A2.51,2.51,0,0,0,76.09,106Z" style="fill:#004336"/><path d="M89.41,108.9a1,1,0,1,0-1,.95A1,1,0,0,0,89.41,108.9Z" style="fill:#004336"/><circle cx="91.17" cy="71.74" r="4.79" style="fill:#004336"/><path d="M76,70a2.52,2.52,0,1,0,2.52,2.52A2.51,2.51,0,0,0,76,70Z" style="fill:#004336"/><circle cx="66.05" cy="83.95" r="0.95" style="fill:#004336"/><circle cx="97.05" cy="104.91" r="4.79" style="fill:#004336"/><path d="M106.47,91.39A2.52,2.52,0,1,0,104,93.91,2.52,2.52,0,0,0,106.47,91.39Z" style="fill:#004336"/><path d="M98.08,77.05a1,1,0,0,0,1.91,0,1,1,0,1,0-1.91,0Z" style="fill:#004336"/><path d="M83.42,94.71c0,.13,0,.26,0,.4a4.79,4.79,0,1,0,5.85-4.67c0-.13,0-.26,0-.4a4.73,4.73,0,0,0-.22-1.37,4.84,4.84,0,1,0-6.57-3,4.72,4.72,0,0,0-1.4,1,4.73,4.73,0,0,0-2.86-1,4.79,4.79,0,1,0,3.41,8.16A4.61,4.61,0,0,0,83.42,94.71Z" style="fill:#004336"/><path d="M501.13,123.46a5,5,0,0,0-3-.9,6,6,0,1,0,0,12,5.58,5.58,0,0,0,5.89-5h-3.62a2.16,2.16,0,0,1-2.25,1.73,2.76,2.76,0,0,1,0-5.52,2.16,2.16,0,0,1,2.25,1.73H504v-4.71h-2.91Z" style="fill:#004336"/><path d="M264.88,85.46c3.33,0,5.91,2,6.45,5h10.39c-.81-8.49-7.81-14.27-16.9-14.27-10.32,0-18,7.2-18,17.19s7.68,17.25,18,17.25c9.09,0,16.09-5.77,16.9-14.26H271.33c-.54,3-3.12,5-6.45,5-4.75,0-7.53-3.46-7.53-7.94S260.13,85.46,264.88,85.46Z" style="fill:#004336"/><path d="M303,76.15c-10.45,0-17.92,7.21-17.92,17s7.47,17.39,17.92,17.39,17.79-7.41,17.79-17.39S313.36,76.15,303,76.15Zm0,25c-4.55,0-7.47-3.5-7.47-7.88s2.92-7.68,7.47-7.68a7.33,7.33,0,0,1,7.4,7.68C310.37,97.65,307.39,101.15,303,101.15Z" style="fill:#004336"/><path d="M347.09,76.41a12.43,12.43,0,0,0-9,3.53V77.16h-14.6V86.3h3.54v31.2h-3.54v9.14h18.14V117.5h-3.54v-9.17a16.74,16.74,0,0,0,9,2.45c8.89,0,16.36-7.4,16.36-17.19S356,76.41,347.09,76.41Zm-2.18,25.33a8.55,8.55,0,0,1-6.79-3V89.51a7.81,7.81,0,0,1,6.79-4.13c4.48,0,7.74,3.66,7.74,8.21S349.39,101.74,344.91,101.74Z" style="fill:#004336"/><path d="M384.65,76.41c-10.46,0-17.93,7.21-17.93,17s7.47,17.39,17.93,17.39,17.78-7.42,17.78-17.39S395,76.41,384.65,76.41Zm0,25c-4.55,0-7.47-3.5-7.47-7.88s2.92-7.69,7.47-7.69a7.35,7.35,0,0,1,7.4,7.69C392.05,97.91,389.06,101.41,384.65,101.41Z" style="fill:#004336"/><path d="M515.91,80.48V77.16h-14.6V86.3h3.53V101h-3.53v9.14h18.13V101h-3.53v-9.9c2.58-2.52,6-4.24,11.33-4.45V76.41A16.46,16.46,0,0,0,515.91,80.48Z" style="fill:#004336"/><polygon points="204.45 73.59 207.98 73.59 207.98 99.91 204.45 99.91 204.45 109.84 242.88 109.84 242.88 96.33 233.74 96.33 233.74 99.86 219.45 99.86 219.45 91.84 230.93 91.84 230.93 82.06 219.45 82.06 219.45 73.64 233.74 73.64 233.74 76.9 242.88 76.9 242.88 63.65 242.88 63.65 204.45 63.65 204.45 73.59" style="fill:#004336"/><polygon points="442.78 86.3 445.4 86.3 441.88 96.58 436.59 77.16 427.9 77.16 422.56 96.58 419.07 86.3 421.69 86.3 421.69 77.16 405.24 77.16 405.24 86.3 408.78 86.3 416.97 110.1 426.95 110.1 432.25 92.1 437.54 110.1 447.52 110.1 455.66 86.3 459.18 86.3 459.18 77.16 442.78 77.16 442.78 86.3" style="fill:#004336"/><polygon points="513.3 125.73 514.22 125.73 512.66 129.59 511.09 125.73 512.01 125.73 512.01 122.82 505.87 122.82 505.87 122.82 505.87 122.82 505.87 125.73 507.13 125.73 510.84 134.3 514.48 134.3 518.19 125.73 519.45 125.73 519.45 122.82 519.45 122.82 513.3 122.82 513.3 125.73" style="fill:#004336"/><path d="M480,110.85c8,0,14.23-4.14,16-10.73H484.88a5.79,5.79,0,0,1-4.77,2,7.41,7.41,0,0,1-7.48-5.57h23.53a21.38,21.38,0,0,0,.18-3.66c0-9.92-7.27-16.51-16.77-16.51C469,76.41,462,83.61,462,93.59S469.18,110.85,480,110.85ZM479.5,84.9A6.1,6.1,0,0,1,486,90.4H472.64A6.66,6.66,0,0,1,479.5,84.9Z" style="fill:#004336"/></svg>